<mxfile host="app.diagrams.net" modified="2020-06-21T06:30:35.130Z" agent="5.0 (X11; Linux x86_64) AppleWebKit/537.36 (KHTML, like Gecko) Chrome/83.0.4103.106 Safari/537.36" etag="cX2eQ8SOKvswuubBtSMp" compressed="false" version="13.3.0" type="device" pages="3">
  <diagram name="Server -&gt; Client json" id="10a91c8b-09ff-31b1-d368-03940ed4cc9e">
    <mxGraphModel dx="1832" dy="830" grid="1" gridSize="10" guides="1" tooltips="1" connect="1" arrows="1" fold="1" page="0" pageScale="1" pageWidth="1100" pageHeight="850" background="#ffffff" math="0" shadow="0">
      <root>
        <mxCell id="0" />
        <mxCell id="1" parent="0" />
        <mxCell id="KYtK_DQJ-3bmVetdKUFA-22" value="Positions:" style="whiteSpace=wrap;html=1;rounded=1;shadow=1;labelBackgroundColor=none;strokeWidth=1;fontFamily=Courier New;fontSize=12;align=center;" parent="1" vertex="1">
          <mxGeometry x="782.5" y="559" width="120" height="40" as="geometry" />
        </mxCell>
        <mxCell id="KYtK_DQJ-3bmVetdKUFA-23" value="Entity1" style="whiteSpace=wrap;html=1;rounded=1;shadow=1;labelBackgroundColor=none;strokeWidth=1;fontFamily=Courier New;fontSize=12;align=center;" parent="1" vertex="1">
          <mxGeometry x="790.5" y="620" width="105" height="40" as="geometry" />
        </mxCell>
        <mxCell id="KYtK_DQJ-3bmVetdKUFA-25" value="Entity2" style="whiteSpace=wrap;html=1;rounded=1;shadow=1;labelBackgroundColor=none;strokeWidth=1;fontFamily=Courier New;fontSize=12;align=center;" parent="1" vertex="1">
          <mxGeometry x="790.5" y="680" width="105" height="40" as="geometry" />
        </mxCell>
        <mxCell id="KYtK_DQJ-3bmVetdKUFA-101" value="&amp;nbsp;{&lt;br&gt;&amp;nbsp; &amp;nbsp;&#39;ev_id&#39;: 0,&lt;br&gt;&amp;nbsp; &amp;nbsp;&#39;map_info&#39;: &lt;br&gt;&amp;nbsp; &amp;nbsp;{&lt;br&gt;&amp;nbsp; &amp;nbsp; &amp;nbsp;// Limpiar para que reciba&lt;br&gt;&amp;nbsp; &amp;nbsp; &amp;nbsp;// solo lo necesario.&lt;br&gt;&amp;nbsp; &amp;nbsp;}&lt;br&gt;&amp;nbsp; &amp;nbsp;&#39;player&#39;:&lt;br&gt;&amp;nbsp; &amp;nbsp;{&lt;br&gt;&amp;nbsp; &amp;nbsp; &amp;nbsp;&#39;name&#39;: PlayerName,&lt;div&gt;&amp;nbsp; &amp;nbsp; &amp;nbsp;&#39;entity_id&#39;: EntityId,&lt;/div&gt;&lt;div&gt;&amp;nbsp; &amp;nbsp; &amp;nbsp;&#39;head_id&#39;: int,&lt;br&gt;&lt;/div&gt;&lt;div&gt;&amp;nbsp; &amp;nbsp; &amp;nbsp;&#39;head_id&#39;: int&lt;/div&gt;&amp;nbsp; &amp;nbsp;}&lt;br&gt;&amp;nbsp;}" style="whiteSpace=wrap;html=1;rounded=0;shadow=1;labelBackgroundColor=none;strokeWidth=2;fontFamily=Courier New;fontSize=12;align=left;" parent="1" vertex="1">
          <mxGeometry x="399" y="190" width="300" height="265" as="geometry" />
        </mxCell>
        <mxCell id="KYtK_DQJ-3bmVetdKUFA-3" style="edgeStyle=orthogonalEdgeStyle;rounded=0;orthogonalLoop=1;jettySize=auto;html=1;exitX=0.5;exitY=1;exitDx=0;exitDy=0;entryX=0;entryY=0.5;entryDx=0;entryDy=0;fontFamily=Courier New;fontSize=16;" parent="1" source="62893188c0fa7362-1" target="62893188c0fa7362-3" edge="1">
          <mxGeometry relative="1" as="geometry" />
        </mxCell>
        <mxCell id="KYtK_DQJ-3bmVetdKUFA-4" value="2" style="edgeLabel;html=1;align=center;verticalAlign=middle;resizable=0;points=[];fontSize=16;fontFamily=Courier New;rotation=0;" parent="KYtK_DQJ-3bmVetdKUFA-3" vertex="1" connectable="0">
          <mxGeometry x="0.7073" y="2" relative="1" as="geometry">
            <mxPoint x="38" y="-11.760000000000005" as="offset" />
          </mxGeometry>
        </mxCell>
        <mxCell id="KYtK_DQJ-3bmVetdKUFA-5" style="edgeStyle=orthogonalEdgeStyle;rounded=0;orthogonalLoop=1;jettySize=auto;html=1;exitX=0.5;exitY=1;exitDx=0;exitDy=0;entryX=0;entryY=0.5;entryDx=0;entryDy=0;fontFamily=Courier New;fontSize=16;" parent="1" source="62893188c0fa7362-1" target="62893188c0fa7362-2" edge="1">
          <mxGeometry relative="1" as="geometry" />
        </mxCell>
        <mxCell id="KYtK_DQJ-3bmVetdKUFA-10" value="0" style="edgeLabel;html=1;align=center;verticalAlign=middle;resizable=0;points=[];fontSize=16;fontFamily=Courier New;" parent="KYtK_DQJ-3bmVetdKUFA-5" vertex="1" connectable="0">
          <mxGeometry x="0.6941" y="-2" relative="1" as="geometry">
            <mxPoint x="-12.500000000000002" y="-19.5" as="offset" />
          </mxGeometry>
        </mxCell>
        <mxCell id="KYtK_DQJ-3bmVetdKUFA-117" style="edgeStyle=orthogonalEdgeStyle;rounded=0;orthogonalLoop=1;jettySize=auto;html=1;exitX=0.5;exitY=1;exitDx=0;exitDy=0;entryX=0;entryY=0.5;entryDx=0;entryDy=0;fontFamily=Courier New;fontSize=16;" parent="1" source="62893188c0fa7362-1" target="KYtK_DQJ-3bmVetdKUFA-106" edge="1">
          <mxGeometry relative="1" as="geometry" />
        </mxCell>
        <mxCell id="KYtK_DQJ-3bmVetdKUFA-119" value="3" style="edgeLabel;html=1;align=center;verticalAlign=middle;resizable=0;points=[];fontSize=16;fontFamily=Courier New;" parent="KYtK_DQJ-3bmVetdKUFA-117" vertex="1" connectable="0">
          <mxGeometry x="0.9486" y="3" relative="1" as="geometry">
            <mxPoint x="-14.59" y="-17.02" as="offset" />
          </mxGeometry>
        </mxCell>
        <mxCell id="ztgEFwi9wh5hzIJzFLKn-1" style="edgeStyle=orthogonalEdgeStyle;rounded=0;orthogonalLoop=1;jettySize=auto;html=1;entryX=0;entryY=0.5;entryDx=0;entryDy=0;" edge="1" parent="1" source="62893188c0fa7362-1" target="ztgEFwi9wh5hzIJzFLKn-3">
          <mxGeometry relative="1" as="geometry">
            <mxPoint x="130" y="1340" as="targetPoint" />
          </mxGeometry>
        </mxCell>
        <mxCell id="62893188c0fa7362-1" value="ev_id (uint8)" style="whiteSpace=wrap;html=1;rounded=1;shadow=1;labelBackgroundColor=none;strokeWidth=1;fontFamily=Courier New;fontSize=12;align=center;" parent="1" vertex="1">
          <mxGeometry x="40" y="100" width="160" height="60" as="geometry" />
        </mxCell>
        <mxCell id="62893188c0fa7362-2" value="&lt;span&gt;Initialize Map&lt;/span&gt;" style="whiteSpace=wrap;html=1;rounded=1;shadow=1;labelBackgroundColor=none;strokeWidth=1;fontFamily=Courier New;fontSize=12;align=center;" parent="1" vertex="1">
          <mxGeometry x="199" y="292.5" width="160" height="60" as="geometry" />
        </mxCell>
        <mxCell id="62893188c0fa7362-3" value="&lt;span&gt;Update Map&lt;/span&gt;" style="whiteSpace=wrap;html=1;rounded=1;shadow=1;labelBackgroundColor=none;strokeWidth=1;fontFamily=Courier New;fontSize=12;align=center;" parent="1" vertex="1">
          <mxGeometry x="195.5" y="640" width="160" height="60" as="geometry" />
        </mxCell>
        <mxCell id="KYtK_DQJ-3bmVetdKUFA-11" value="" style="shape=curlyBracket;whiteSpace=wrap;html=1;rounded=1;fontFamily=Courier New;fontSize=16;rotation=0;" parent="1" vertex="1">
          <mxGeometry x="359" y="180" width="40" height="285" as="geometry" />
        </mxCell>
        <mxCell id="KYtK_DQJ-3bmVetdKUFA-20" value="&lt;span&gt;MAP&lt;/span&gt;" style="whiteSpace=wrap;html=1;rounded=1;shadow=1;labelBackgroundColor=none;strokeWidth=1;fontFamily=Courier New;fontSize=12;align=center;" parent="1" vertex="1">
          <mxGeometry x="786" y="245" width="120" height="40" as="geometry" />
        </mxCell>
        <mxCell id="KYtK_DQJ-3bmVetdKUFA-26" value="..." style="whiteSpace=wrap;html=1;rounded=1;shadow=1;labelBackgroundColor=none;strokeWidth=1;fontFamily=Courier New;fontSize=12;align=center;" parent="1" vertex="1">
          <mxGeometry x="790.5" y="740" width="105" height="40" as="geometry" />
        </mxCell>
        <mxCell id="KYtK_DQJ-3bmVetdKUFA-50" value="&lt;font style=&quot;font-size: 18px&quot;&gt;SERVER -&amp;gt; CLIENT&lt;/font&gt;" style="rounded=0;whiteSpace=wrap;html=1;fontFamily=Courier New;fontSize=16;align=center;" parent="1" vertex="1">
          <mxGeometry x="20" y="20" width="200" height="60" as="geometry" />
        </mxCell>
        <mxCell id="KYtK_DQJ-3bmVetdKUFA-52" value="" style="shape=curlyBracket;whiteSpace=wrap;html=1;rounded=1;fontFamily=Courier New;fontSize=16;rotation=0;" parent="1" vertex="1">
          <mxGeometry x="355.5" y="550" width="40" height="240" as="geometry" />
        </mxCell>
        <mxCell id="KYtK_DQJ-3bmVetdKUFA-106" value="&lt;span&gt;Update Entity&lt;/span&gt;" style="whiteSpace=wrap;html=1;rounded=1;shadow=1;labelBackgroundColor=none;strokeWidth=1;fontFamily=Courier New;fontSize=12;align=center;" parent="1" vertex="1">
          <mxGeometry x="195.5" y="1000" width="160" height="60" as="geometry" />
        </mxCell>
        <mxCell id="KYtK_DQJ-3bmVetdKUFA-107" value="" style="shape=curlyBracket;whiteSpace=wrap;html=1;rounded=1;fontFamily=Courier New;fontSize=16;rotation=0;" parent="1" vertex="1">
          <mxGeometry x="355.5" y="870" width="40" height="320" as="geometry" />
        </mxCell>
        <mxCell id="seSkTMLVDcw1oMtLU19R-11" value="Player" style="whiteSpace=wrap;html=1;rounded=1;shadow=1;labelBackgroundColor=none;strokeWidth=1;fontFamily=Courier New;fontSize=12;align=center;" parent="1" vertex="1">
          <mxGeometry x="793.5" y="352.5" width="105" height="40" as="geometry" />
        </mxCell>
        <mxCell id="seSkTMLVDcw1oMtLU19R-18" value="&amp;nbsp;{&lt;br&gt;&amp;nbsp; &amp;nbsp;&#39;ev_id&#39;: 2,&lt;br&gt;&amp;nbsp; &amp;nbsp;&#39;positions&#39;: [&lt;br&gt;&amp;nbsp; &amp;nbsp; &amp;nbsp;{&lt;br&gt;&amp;nbsp; &amp;nbsp; &amp;nbsp; &amp;nbsp;&#39;entity_id&#39;: EntityId,&lt;br&gt;&amp;nbsp; &amp;nbsp; &amp;nbsp; &amp;nbsp;&#39;x&#39;: int,&lt;br&gt;&amp;nbsp; &amp;nbsp; &amp;nbsp; &amp;nbsp;&#39;y&#39;: int&lt;br&gt;&amp;nbsp; &amp;nbsp; &amp;nbsp;},&lt;br&gt;&amp;nbsp; &amp;nbsp; &amp;nbsp;{&lt;br&gt;&amp;nbsp; &amp;nbsp; &amp;nbsp; &amp;nbsp;&#39;entity_id&#39;: EntityId,&lt;br&gt;&amp;nbsp; &amp;nbsp; &amp;nbsp; &amp;nbsp;&#39;x&#39;: int,&lt;br&gt;&amp;nbsp; &amp;nbsp; &amp;nbsp; &amp;nbsp;&#39;y&#39;: int&lt;br&gt;&amp;nbsp; &amp;nbsp; &amp;nbsp;},&lt;br&gt;&amp;nbsp; &amp;nbsp; &amp;nbsp;...&lt;br&gt;&amp;nbsp; &amp;nbsp;]&lt;br&gt;&amp;nbsp;}" style="whiteSpace=wrap;html=1;rounded=0;shadow=1;labelBackgroundColor=none;strokeWidth=2;fontFamily=Courier New;fontSize=12;align=left;" parent="1" vertex="1">
          <mxGeometry x="395.5" y="550" width="300" height="240" as="geometry" />
        </mxCell>
        <mxCell id="seSkTMLVDcw1oMtLU19R-22" value="&amp;nbsp;{&lt;br&gt;&amp;nbsp; &amp;nbsp;&#39;ev_id&#39;: 3,&lt;br&gt;&amp;nbsp; &amp;nbsp;&#39;entities&#39;: [&lt;br&gt;&amp;nbsp; &amp;nbsp; &amp;nbsp;{&lt;br&gt;&amp;nbsp; &amp;nbsp; &amp;nbsp; &amp;nbsp;&#39;entity_id&#39;: EntityId,&lt;br&gt;&amp;nbsp; &amp;nbsp; &amp;nbsp; &amp;nbsp;&#39;entity_type_id&#39;: int,&lt;br&gt;&amp;nbsp; &amp;nbsp; &amp;nbsp; &amp;nbsp;entity_info&lt;br&gt;&amp;nbsp; &amp;nbsp; &amp;nbsp;},&lt;br&gt;&amp;nbsp; &amp;nbsp; &amp;nbsp;{&lt;br&gt;&amp;nbsp; &amp;nbsp; &amp;nbsp; &amp;nbsp;&#39;entity_id&#39;: EntityId,&lt;br&gt;&amp;nbsp; &amp;nbsp; &amp;nbsp; &amp;nbsp;&#39;entity_type_id&#39;: int,&lt;br&gt;&amp;nbsp; &amp;nbsp; &amp;nbsp; &amp;nbsp;entity_info&lt;br&gt;&amp;nbsp; &amp;nbsp; &amp;nbsp;},&lt;br&gt;&amp;nbsp; &amp;nbsp; &amp;nbsp;...&lt;br&gt;&amp;nbsp; &amp;nbsp;]&lt;br&gt;&amp;nbsp;&lt;br&gt;&amp;nbsp;}" style="whiteSpace=wrap;html=1;rounded=0;shadow=1;labelBackgroundColor=none;strokeWidth=2;fontFamily=Courier New;fontSize=12;align=left;" parent="1" vertex="1">
          <mxGeometry x="398" y="880" width="300" height="300" as="geometry" />
        </mxCell>
        <mxCell id="seSkTMLVDcw1oMtLU19R-24" value="Entities:" style="whiteSpace=wrap;html=1;rounded=1;shadow=1;labelBackgroundColor=none;strokeWidth=1;fontFamily=Courier New;fontSize=12;align=center;" parent="1" vertex="1">
          <mxGeometry x="782.5" y="910" width="120" height="40" as="geometry" />
        </mxCell>
        <mxCell id="seSkTMLVDcw1oMtLU19R-25" value="Entity1" style="whiteSpace=wrap;html=1;rounded=1;shadow=1;labelBackgroundColor=none;strokeWidth=1;fontFamily=Courier New;fontSize=12;align=center;" parent="1" vertex="1">
          <mxGeometry x="790.5" y="971" width="105" height="40" as="geometry" />
        </mxCell>
        <mxCell id="seSkTMLVDcw1oMtLU19R-26" value="Entity2" style="whiteSpace=wrap;html=1;rounded=1;shadow=1;labelBackgroundColor=none;strokeWidth=1;fontFamily=Courier New;fontSize=12;align=center;" parent="1" vertex="1">
          <mxGeometry x="790.5" y="1031" width="105" height="40" as="geometry" />
        </mxCell>
        <mxCell id="seSkTMLVDcw1oMtLU19R-27" value="..." style="whiteSpace=wrap;html=1;rounded=1;shadow=1;labelBackgroundColor=none;strokeWidth=1;fontFamily=Courier New;fontSize=12;align=center;" parent="1" vertex="1">
          <mxGeometry x="790.5" y="1091" width="105" height="40" as="geometry" />
        </mxCell>
        <mxCell id="ztgEFwi9wh5hzIJzFLKn-2" value="&amp;nbsp;{&lt;br&gt;&amp;nbsp; &amp;nbsp;&#39;ev_id&#39;: 0,&lt;br&gt;&amp;nbsp; &amp;nbsp;&#39;map_info&#39;: &lt;br&gt;&amp;nbsp; &amp;nbsp;{&lt;br&gt;&amp;nbsp; &amp;nbsp; &amp;nbsp;// Limpiar para que reciba&lt;br&gt;&amp;nbsp; &amp;nbsp; &amp;nbsp;// solo lo necesario.&lt;br&gt;&amp;nbsp; &amp;nbsp;}&lt;br&gt;&amp;nbsp; &amp;nbsp;&#39;player&#39;:&lt;br&gt;&amp;nbsp; &amp;nbsp;{&lt;br&gt;&amp;nbsp; &amp;nbsp; &amp;nbsp;&#39;name&#39;: PlayerName,&lt;div&gt;&amp;nbsp; &amp;nbsp; &amp;nbsp;&#39;entity_id&#39;: EntityId,&lt;/div&gt;&lt;div&gt;&amp;nbsp; &amp;nbsp; &amp;nbsp;&#39;id_head&#39;: int,&lt;br&gt;&lt;/div&gt;&lt;div&gt;&amp;nbsp; &amp;nbsp; &amp;nbsp;&#39;id_body&#39;: int&lt;/div&gt;&amp;nbsp; &amp;nbsp;}&lt;br&gt;&amp;nbsp;}" style="whiteSpace=wrap;html=1;rounded=0;shadow=1;labelBackgroundColor=none;strokeWidth=2;fontFamily=Courier New;fontSize=12;align=left;" vertex="1" parent="1">
          <mxGeometry x="392" y="1280" width="300" height="265" as="geometry" />
        </mxCell>
        <mxCell id="ztgEFwi9wh5hzIJzFLKn-3" value="&lt;span&gt;Initialize Map&lt;/span&gt;" style="whiteSpace=wrap;html=1;rounded=1;shadow=1;labelBackgroundColor=none;strokeWidth=1;fontFamily=Courier New;fontSize=12;align=center;" vertex="1" parent="1">
          <mxGeometry x="192" y="1382.5" width="160" height="60" as="geometry" />
        </mxCell>
        <mxCell id="ztgEFwi9wh5hzIJzFLKn-4" value="" style="shape=curlyBracket;whiteSpace=wrap;html=1;rounded=1;fontFamily=Courier New;fontSize=16;rotation=0;" vertex="1" parent="1">
          <mxGeometry x="352" y="1270" width="40" height="285" as="geometry" />
        </mxCell>
        <mxCell id="ztgEFwi9wh5hzIJzFLKn-5" value="&lt;span&gt;MAP&lt;/span&gt;" style="whiteSpace=wrap;html=1;rounded=1;shadow=1;labelBackgroundColor=none;strokeWidth=1;fontFamily=Courier New;fontSize=12;align=center;" vertex="1" parent="1">
          <mxGeometry x="779" y="1335" width="120" height="40" as="geometry" />
        </mxCell>
        <mxCell id="ztgEFwi9wh5hzIJzFLKn-6" value="Player" style="whiteSpace=wrap;html=1;rounded=1;shadow=1;labelBackgroundColor=none;strokeWidth=1;fontFamily=Courier New;fontSize=12;align=center;" vertex="1" parent="1">
          <mxGeometry x="786.5" y="1442.5" width="105" height="40" as="geometry" />
        </mxCell>
      </root>
    </mxGraphModel>
  </diagram>
  <diagram id="DuVVOKHTS6CnTLzgB9to" name="Client -&gt; Server json">
    <mxGraphModel dx="1355" dy="976" grid="1" gridSize="10" guides="1" tooltips="1" connect="1" arrows="1" fold="1" page="0" pageScale="1" pageWidth="850" pageHeight="1100" background="none" math="0" shadow="0">
      <root>
        <mxCell id="_s7IfOFS6uS4sjVXHc8J-0" />
        <mxCell id="_s7IfOFS6uS4sjVXHc8J-1" parent="_s7IfOFS6uS4sjVXHc8J-0" />
        <mxCell id="8rJWjVu2OszqLLAVaxLL-0" value="{ &lt;br&gt;&amp;nbsp; &#39;ev_id&#39; : 4,&lt;br&gt;&amp;nbsp; &#39;cmd&#39; : string&lt;br&gt;}" style="whiteSpace=wrap;html=1;rounded=0;shadow=1;labelBackgroundColor=none;strokeWidth=2;fontFamily=Courier New;fontSize=12;align=left;" parent="_s7IfOFS6uS4sjVXHc8J-1" vertex="1">
          <mxGeometry x="1280" y="615" width="370" height="75" as="geometry" />
        </mxCell>
        <mxCell id="8rJWjVu2OszqLLAVaxLL-1" value="{ &lt;br&gt;&amp;nbsp; &#39;ev_id&#39; : 0,&lt;br&gt;&amp;nbsp; &#39;name&#39; : &quot;Hello World!&quot;,&lt;br&gt;&amp;nbsp; &#39;passwd&#39; : &quot;Nope&quot;&lt;br&gt;}" style="whiteSpace=wrap;html=1;rounded=0;shadow=1;labelBackgroundColor=none;strokeWidth=2;fontFamily=Courier New;fontSize=12;align=left;" parent="_s7IfOFS6uS4sjVXHc8J-1" vertex="1">
          <mxGeometry x="1280" y="270" width="370" height="85" as="geometry" />
        </mxCell>
        <mxCell id="8rJWjVu2OszqLLAVaxLL-2" style="edgeStyle=orthogonalEdgeStyle;rounded=0;orthogonalLoop=1;jettySize=auto;html=1;exitX=0.5;exitY=1;exitDx=0;exitDy=0;entryX=0;entryY=0.5;entryDx=0;entryDy=0;fontFamily=Courier New;fontSize=16;" parent="_s7IfOFS6uS4sjVXHc8J-1" source="8rJWjVu2OszqLLAVaxLL-6" target="8rJWjVu2OszqLLAVaxLL-8" edge="1">
          <mxGeometry relative="1" as="geometry" />
        </mxCell>
        <mxCell id="8rJWjVu2OszqLLAVaxLL-3" value="1" style="edgeLabel;html=1;align=center;verticalAlign=middle;resizable=0;points=[];fontSize=16;fontFamily=Courier New;" parent="8rJWjVu2OszqLLAVaxLL-2" vertex="1" connectable="0">
          <mxGeometry x="0.7073" y="2" relative="1" as="geometry">
            <mxPoint x="38" y="-18.57" as="offset" />
          </mxGeometry>
        </mxCell>
        <mxCell id="8rJWjVu2OszqLLAVaxLL-4" style="edgeStyle=orthogonalEdgeStyle;rounded=0;orthogonalLoop=1;jettySize=auto;html=1;exitX=0.5;exitY=1;exitDx=0;exitDy=0;entryX=0;entryY=0.5;entryDx=0;entryDy=0;fontFamily=Courier New;fontSize=16;" parent="_s7IfOFS6uS4sjVXHc8J-1" source="8rJWjVu2OszqLLAVaxLL-6" target="8rJWjVu2OszqLLAVaxLL-7" edge="1">
          <mxGeometry relative="1" as="geometry" />
        </mxCell>
        <mxCell id="8rJWjVu2OszqLLAVaxLL-5" value="0" style="edgeLabel;html=1;align=center;verticalAlign=middle;resizable=0;points=[];fontSize=16;fontFamily=Courier New;" parent="8rJWjVu2OszqLLAVaxLL-4" vertex="1" connectable="0">
          <mxGeometry x="0.6941" y="-2" relative="1" as="geometry">
            <mxPoint x="-4" y="-19.53" as="offset" />
          </mxGeometry>
        </mxCell>
        <mxCell id="8rJWjVu2OszqLLAVaxLL-6" value="ev_id (uint8)" style="whiteSpace=wrap;html=1;rounded=1;shadow=1;labelBackgroundColor=none;strokeWidth=1;fontFamily=Courier New;fontSize=12;align=center;" parent="_s7IfOFS6uS4sjVXHc8J-1" vertex="1">
          <mxGeometry x="915" y="110" width="170" height="60" as="geometry" />
        </mxCell>
        <mxCell id="8rJWjVu2OszqLLAVaxLL-7" value="&lt;span&gt;Connect&lt;/span&gt;" style="whiteSpace=wrap;html=1;rounded=1;shadow=1;labelBackgroundColor=none;strokeWidth=1;fontFamily=Courier New;fontSize=12;align=center;" parent="_s7IfOFS6uS4sjVXHc8J-1" vertex="1">
          <mxGeometry x="1080" y="282.5" width="160" height="60" as="geometry" />
        </mxCell>
        <mxCell id="8rJWjVu2OszqLLAVaxLL-8" value="Command" style="whiteSpace=wrap;html=1;rounded=1;shadow=1;labelBackgroundColor=none;strokeWidth=1;fontFamily=Courier New;fontSize=12;align=center;" parent="_s7IfOFS6uS4sjVXHc8J-1" vertex="1">
          <mxGeometry x="1080" y="620" width="160" height="60" as="geometry" />
        </mxCell>
        <mxCell id="8rJWjVu2OszqLLAVaxLL-9" value="" style="shape=curlyBracket;whiteSpace=wrap;html=1;rounded=1;fontFamily=Courier New;fontSize=16;rotation=0;" parent="_s7IfOFS6uS4sjVXHc8J-1" vertex="1">
          <mxGeometry x="1240" y="260" width="40" height="105" as="geometry" />
        </mxCell>
        <mxCell id="8rJWjVu2OszqLLAVaxLL-13" value="&lt;span style=&quot;font-size: 18px&quot;&gt;CLIENT -&amp;gt; SERVER&lt;/span&gt;" style="rounded=0;whiteSpace=wrap;html=1;fontFamily=Courier New;fontSize=16;align=center;" parent="_s7IfOFS6uS4sjVXHc8J-1" vertex="1">
          <mxGeometry x="900" y="30" width="200" height="60" as="geometry" />
        </mxCell>
        <mxCell id="8rJWjVu2OszqLLAVaxLL-14" value="" style="shape=curlyBracket;whiteSpace=wrap;html=1;rounded=1;fontFamily=Courier New;fontSize=16;rotation=0;" parent="_s7IfOFS6uS4sjVXHc8J-1" vertex="1">
          <mxGeometry x="1240" y="610" width="40" height="85" as="geometry" />
        </mxCell>
        <mxCell id="8rJWjVu2OszqLLAVaxLL-15" style="edgeStyle=orthogonalEdgeStyle;rounded=0;orthogonalLoop=1;jettySize=auto;html=1;exitX=1;exitY=0.5;exitDx=0;exitDy=0;entryX=0;entryY=0.5;entryDx=0;entryDy=0;fontFamily=Courier New;fontSize=16;" parent="_s7IfOFS6uS4sjVXHc8J-1" source="8rJWjVu2OszqLLAVaxLL-16" edge="1">
          <mxGeometry relative="1" as="geometry">
            <mxPoint x="1445" y="652.5" as="targetPoint" />
          </mxGeometry>
        </mxCell>
        <mxCell id="9_mrCvzZk_hu6NLlaEXw-0" value="{ &lt;br&gt;&amp;nbsp; &#39;ev_id&#39; : 2,&lt;br&gt;&amp;nbsp; &#39;action&#39; : START,&lt;br&gt;&amp;nbsp; &#39;direction&#39; : UP&lt;br&gt;}" style="whiteSpace=wrap;html=1;rounded=0;shadow=1;labelBackgroundColor=none;strokeWidth=2;fontFamily=Courier New;fontSize=12;align=left;" parent="_s7IfOFS6uS4sjVXHc8J-1" vertex="1">
          <mxGeometry x="1280" y="950" width="370" height="85" as="geometry" />
        </mxCell>
        <mxCell id="9_mrCvzZk_hu6NLlaEXw-1" value="2" style="edgeLabel;html=1;align=center;verticalAlign=middle;resizable=0;points=[];fontSize=16;fontFamily=Courier New;" parent="_s7IfOFS6uS4sjVXHc8J-1" vertex="1" connectable="0">
          <mxGeometry x="1050" y="979.9970588235293" as="geometry">
            <mxPoint x="-12" y="-6" as="offset" />
          </mxGeometry>
        </mxCell>
        <mxCell id="9_mrCvzZk_hu6NLlaEXw-2" value="Move" style="whiteSpace=wrap;html=1;rounded=1;shadow=1;labelBackgroundColor=none;strokeWidth=1;fontFamily=Courier New;fontSize=12;align=center;" parent="_s7IfOFS6uS4sjVXHc8J-1" vertex="1">
          <mxGeometry x="1080" y="960" width="160" height="60" as="geometry" />
        </mxCell>
        <mxCell id="9_mrCvzZk_hu6NLlaEXw-3" value="" style="shape=curlyBracket;whiteSpace=wrap;html=1;rounded=1;fontFamily=Courier New;fontSize=16;rotation=0;" parent="_s7IfOFS6uS4sjVXHc8J-1" vertex="1">
          <mxGeometry x="1240" y="940" width="40" height="105" as="geometry" />
        </mxCell>
        <mxCell id="9_mrCvzZk_hu6NLlaEXw-4" style="edgeStyle=orthogonalEdgeStyle;rounded=0;orthogonalLoop=1;jettySize=auto;html=1;exitX=1;exitY=0.5;exitDx=0;exitDy=0;entryX=0;entryY=0.5;entryDx=0;entryDy=0;fontFamily=Courier New;fontSize=16;" parent="_s7IfOFS6uS4sjVXHc8J-1" source="9_mrCvzZk_hu6NLlaEXw-5" edge="1">
          <mxGeometry relative="1" as="geometry">
            <mxPoint x="1445" y="992.5" as="targetPoint" />
          </mxGeometry>
        </mxCell>
        <mxCell id="9_mrCvzZk_hu6NLlaEXw-7" style="edgeStyle=orthogonalEdgeStyle;rounded=0;orthogonalLoop=1;jettySize=auto;html=1;exitX=0.5;exitY=1;exitDx=0;exitDy=0;entryX=0;entryY=0.5;entryDx=0;entryDy=0;fontFamily=Courier New;fontSize=16;" parent="_s7IfOFS6uS4sjVXHc8J-1" source="8rJWjVu2OszqLLAVaxLL-6" target="9_mrCvzZk_hu6NLlaEXw-2" edge="1">
          <mxGeometry relative="1" as="geometry">
            <mxPoint x="1010" y="180" as="sourcePoint" />
            <mxPoint x="1090" y="660" as="targetPoint" />
            <Array as="points">
              <mxPoint x="1000" y="990" />
            </Array>
          </mxGeometry>
        </mxCell>
      </root>
    </mxGraphModel>
  </diagram>
  <diagram id="oRo_z_dw-nL0XvEMk9dy" name="Network flow ">
    
    <mxGraphModel dx="2280" dy="8" grid="1" gridSize="10" guides="1" tooltips="1" connect="1" arrows="1" fold="1" page="0" pageScale="1" pageWidth="850" pageHeight="1100" background="#ffffff" math="0" shadow="0">
      
      <root>
        
        <mxCell id="OZjUQ0gGfMh4LwKYj09D-0" />
        
        <mxCell id="OZjUQ0gGfMh4LwKYj09D-1" parent="OZjUQ0gGfMh4LwKYj09D-0" />
        
        <mxCell id="OZjUQ0gGfMh4LwKYj09D-16" value="" style="ellipse;shape=umlControl;whiteSpace=wrap;html=1;strokeColor=#000000;fillColor=#ffffff;fontFamily=Courier New;" vertex="1" parent="OZjUQ0gGfMh4LwKYj09D-1">
          
          <mxGeometry x="1285" y="1802" width="120" height="138" as="geometry" />
          
        </mxCell>
        
        <mxCell id="OZjUQ0gGfMh4LwKYj09D-17" value="" style="ellipse;shape=umlControl;whiteSpace=wrap;html=1;strokeColor=#000000;fillColor=#ffffff;fontFamily=Courier New;" vertex="1" parent="OZjUQ0gGfMh4LwKYj09D-1">
          
          <mxGeometry x="1275" y="1822" width="120" height="138" as="geometry" />
          
        </mxCell>
        
        <mxCell id="mMupcujavIfd1Qa72NL4-7" style="edgeStyle=orthogonalEdgeStyle;rounded=0;comic=0;orthogonalLoop=1;jettySize=auto;html=1;entryX=0.563;entryY=0.13;entryDx=0;entryDy=0;entryPerimeter=0;startArrow=none;startFill=0;endArrow=classic;endFill=1;strokeWidth=1;fontFamily=Courier New;" edge="1" parent="OZjUQ0gGfMh4LwKYj09D-1" source="mMupcujavIfd1Qa72NL4-4" target="OZjUQ0gGfMh4LwKYj09D-16">
          
          <mxGeometry relative="1" as="geometry" />
          
        </mxCell>
        
        <mxCell id="mMupcujavIfd1Qa72NL4-6" style="edgeStyle=orthogonalEdgeStyle;rounded=0;comic=0;orthogonalLoop=1;jettySize=auto;html=1;entryX=0.567;entryY=0.13;entryDx=0;entryDy=0;entryPerimeter=0;startArrow=none;startFill=0;endArrow=classic;endFill=1;strokeWidth=1;fontFamily=Courier New;" edge="1" parent="OZjUQ0gGfMh4LwKYj09D-1" source="mMupcujavIfd1Qa72NL4-3" target="OZjUQ0gGfMh4LwKYj09D-17">
          
          <mxGeometry relative="1" as="geometry">
            
            <Array as="points">
              
              <mxPoint x="1343" y="1795" />
              
            </Array>
            
          </mxGeometry>
          
        </mxCell>
        
        <mxCell id="mMupcujavIfd1Qa72NL4-4" value="" style="rounded=0;whiteSpace=wrap;html=1;strokeColor=#000000;strokeWidth=1;fillColor=#ffffff;fontFamily=Courier New;" vertex="1" parent="OZjUQ0gGfMh4LwKYj09D-1">
          
          <mxGeometry x="1272.5" y="1660" width="160" height="80" as="geometry" />
          
        </mxCell>
        
        <mxCell id="mMupcujavIfd1Qa72NL4-3" value="" style="rounded=0;whiteSpace=wrap;html=1;strokeColor=#000000;strokeWidth=1;fillColor=#ffffff;fontFamily=Courier New;" vertex="1" parent="OZjUQ0gGfMh4LwKYj09D-1">
          
          <mxGeometry x="1262.5" y="1671" width="160" height="80" as="geometry" />
          
        </mxCell>
        
        <mxCell id="mMupcujavIfd1Qa72NL4-2" value="SocketManager" style="rounded=0;whiteSpace=wrap;html=1;strokeColor=#000000;strokeWidth=1;fillColor=#ffffff;fontFamily=Courier New;" vertex="1" parent="OZjUQ0gGfMh4LwKYj09D-1">
          
          <mxGeometry x="1250" y="1680" width="160" height="80" as="geometry" />
          
        </mxCell>
        
        <mxCell id="OZjUQ0gGfMh4LwKYj09D-2" value="" style="rounded=0;whiteSpace=wrap;html=1;fillColor=none;strokeColor=#FF8000;strokeWidth=3;" vertex="1" parent="OZjUQ0gGfMh4LwKYj09D-1">
          
          <mxGeometry x="1230" y="1280" width="1080" height="720" as="geometry" />
          
        </mxCell>
        
        <mxCell id="OZjUQ0gGfMh4LwKYj09D-3" value="" style="rounded=0;whiteSpace=wrap;html=1;fillColor=none;strokeColor=#000000;strokeWidth=2;" vertex="1" parent="OZjUQ0gGfMh4LwKYj09D-1">
          
          <mxGeometry x="1710" y="1320" width="560" height="640" as="geometry" />
          
        </mxCell>
        
        <mxCell id="OZjUQ0gGfMh4LwKYj09D-4" value="" style="ellipse;shape=umlControl;whiteSpace=wrap;html=1;strokeColor=#000000;fillColor=#ffffff;fontFamily=Courier New;perimeterSpacing=1;" vertex="1" parent="OZjUQ0gGfMh4LwKYj09D-1">
          
          <mxGeometry x="1780" y="1330" width="115" height="128" as="geometry" />
          
        </mxCell>
        
        <mxCell id="OZjUQ0gGfMh4LwKYj09D-5" value="" style="ellipse;shape=umlControl;whiteSpace=wrap;html=1;strokeColor=#000000;fillColor=#ffffff;fontFamily=Courier New;perimeterSpacing=1;" vertex="1" parent="OZjUQ0gGfMh4LwKYj09D-1">
          
          <mxGeometry x="1765" y="1350" width="115" height="127" as="geometry" />
          
        </mxCell>
        
        <mxCell id="OZjUQ0gGfMh4LwKYj09D-6" value="" style="ellipse;shape=umlControl;whiteSpace=wrap;html=1;strokeColor=#000000;fillColor=#ffffff;fontFamily=Courier New;" vertex="1" parent="OZjUQ0gGfMh4LwKYj09D-1">
          
          <mxGeometry x="1280" y="1302" width="120" height="118" as="geometry" />
          
        </mxCell>
        
        <mxCell id="OZjUQ0gGfMh4LwKYj09D-7" value="" style="ellipse;shape=umlControl;whiteSpace=wrap;html=1;strokeColor=#000000;fillColor=#ffffff;fontFamily=Courier New;" vertex="1" parent="OZjUQ0gGfMh4LwKYj09D-1">
          
          <mxGeometry x="1270" y="1312" width="120" height="138" as="geometry" />
          
        </mxCell>
        
        <mxCell id="OZjUQ0gGfMh4LwKYj09D-8" value="" style="rounded=0;whiteSpace=wrap;html=1;fillColor=none;strokeColor=#007FFF;strokeWidth=3;" vertex="1" parent="OZjUQ0gGfMh4LwKYj09D-1">
          
          <mxGeometry x="220" y="1280" width="880" height="720" as="geometry" />
          
        </mxCell>
        
        <mxCell id="OZjUQ0gGfMh4LwKYj09D-9" value="SocketSender" style="ellipse;shape=umlControl;whiteSpace=wrap;html=1;strokeColor=#000000;fillColor=#ffffff;fontFamily=Courier New;perimeterSpacing=1;" vertex="1" parent="OZjUQ0gGfMh4LwKYj09D-1">
          
          <mxGeometry x="940" y="1330" width="120" height="140" as="geometry" />
          
        </mxCell>
        
        <mxCell id="OZjUQ0gGfMh4LwKYj09D-10" style="edgeStyle=orthogonalEdgeStyle;rounded=0;orthogonalLoop=1;jettySize=auto;html=1;entryX=1.029;entryY=0.558;entryDx=0;entryDy=0;entryPerimeter=0;startArrow=none;startFill=0;endArrow=classic;endFill=1;strokeWidth=1;fontFamily=Courier New;" edge="1" parent="OZjUQ0gGfMh4LwKYj09D-1" source="OZjUQ0gGfMh4LwKYj09D-12" target="OZjUQ0gGfMh4LwKYj09D-34">
          
          <mxGeometry relative="1" as="geometry">
            
            <Array as="points">
              
              <mxPoint x="900" y="1910" />
              
              <mxPoint x="900" y="1880" />
              
            </Array>
            
          </mxGeometry>
          
        </mxCell>
        
        <mxCell id="OZjUQ0gGfMh4LwKYj09D-11" value="handle(Event)" style="edgeLabel;html=1;align=center;verticalAlign=middle;resizable=0;points=[];fontFamily=Courier New;labelBackgroundColor=none;" vertex="1" connectable="0" parent="OZjUQ0gGfMh4LwKYj09D-10">
          
          <mxGeometry x="0.1674" relative="1" as="geometry">
            
            <mxPoint x="-8.86" y="-9.179999999999998" as="offset" />
            
          </mxGeometry>
          
        </mxCell>
        
        <mxCell id="OZjUQ0gGfMh4LwKYj09D-12" value="SocketReceiver" style="ellipse;shape=umlControl;whiteSpace=wrap;html=1;strokeColor=#000000;fillColor=#ffffff;fontFamily=Courier New;perimeterSpacing=1;" vertex="1" parent="OZjUQ0gGfMh4LwKYj09D-1">
          
          <mxGeometry x="940" y="1840" width="120" height="140" as="geometry" />
          
        </mxCell>
        
        <mxCell id="OZjUQ0gGfMh4LwKYj09D-13" value="" style="endArrow=open;dashed=1;html=1;fontFamily=Courier New;strokeWidth=3;exitX=1.033;exitY=0.534;exitDx=0;exitDy=0;exitPerimeter=0;entryX=0.012;entryY=0.525;entryDx=0;entryDy=0;entryPerimeter=0;endFill=0;" edge="1" parent="OZjUQ0gGfMh4LwKYj09D-1" source="OZjUQ0gGfMh4LwKYj09D-9" target="OZjUQ0gGfMh4LwKYj09D-14">
          
          <mxGeometry width="50" height="50" relative="1" as="geometry">
            
            <mxPoint x="1150" y="1420" as="sourcePoint" />
            
            <mxPoint x="1960" y="1390" as="targetPoint" />
            
          </mxGeometry>
          
        </mxCell>
        
        <mxCell id="OZjUQ0gGfMh4LwKYj09D-14" value="SocketReceiver" style="ellipse;shape=umlControl;whiteSpace=wrap;html=1;strokeColor=#000000;fillColor=#ffffff;fontFamily=Courier New;perimeterSpacing=1;" vertex="1" parent="OZjUQ0gGfMh4LwKYj09D-1">
          
          <mxGeometry x="1260" y="1332" width="120" height="138" as="geometry" />
          
        </mxCell>
        
        <mxCell id="OZjUQ0gGfMh4LwKYj09D-15" value="" style="endArrow=open;dashed=1;html=1;fontFamily=Courier New;strokeWidth=3;endFill=0;exitX=0.002;exitY=0.588;exitDx=0;exitDy=0;exitPerimeter=0;entryX=1.033;entryY=0.588;entryDx=0;entryDy=0;entryPerimeter=0;" edge="1" parent="OZjUQ0gGfMh4LwKYj09D-1" source="OZjUQ0gGfMh4LwKYj09D-18" target="OZjUQ0gGfMh4LwKYj09D-12">
          
          <mxGeometry width="50" height="50" relative="1" as="geometry">
            
            <mxPoint x="1638.8799999999997" y="1912.6399999999999" as="sourcePoint" />
            
            <mxPoint x="1539.9999999999998" y="1910" as="targetPoint" />
            
          </mxGeometry>
          
        </mxCell>
        
        <mxCell id="OZjUQ0gGfMh4LwKYj09D-18" value="SocketSender" style="ellipse;shape=umlControl;whiteSpace=wrap;html=1;strokeColor=#000000;fillColor=#ffffff;fontFamily=Courier New;perimeterSpacing=1;" vertex="1" parent="OZjUQ0gGfMh4LwKYj09D-1">
          
          <mxGeometry x="1265" y="1842" width="120" height="138" as="geometry" />
          
        </mxCell>
        
        <mxCell id="OZjUQ0gGfMh4LwKYj09D-19" value="Dispatcher" style="ellipse;shape=umlControl;whiteSpace=wrap;html=1;strokeColor=#000000;fillColor=#ffffff;fontFamily=Courier New;perimeterSpacing=1;" vertex="1" parent="OZjUQ0gGfMh4LwKYj09D-1">
          
          <mxGeometry x="1445" y="1315" width="115" height="130" as="geometry" />
          
        </mxCell>
        
        <mxCell id="OZjUQ0gGfMh4LwKYj09D-20" value="" style="endArrow=classic;html=1;strokeWidth=1;fontFamily=Courier New;entryX=0.002;entryY=0.541;entryDx=0;entryDy=0;entryPerimeter=0;exitX=1.012;exitY=0.532;exitDx=0;exitDy=0;exitPerimeter=0;" edge="1" parent="OZjUQ0gGfMh4LwKYj09D-1" source="OZjUQ0gGfMh4LwKYj09D-6" target="OZjUQ0gGfMh4LwKYj09D-19">
          
          <mxGeometry width="50" height="50" relative="1" as="geometry">
            
            <mxPoint x="1400" y="1400" as="sourcePoint" />
            
            <mxPoint x="1450" y="1350" as="targetPoint" />
            
          </mxGeometry>
          
        </mxCell>
        
        <mxCell id="OZjUQ0gGfMh4LwKYj09D-21" value="" style="endArrow=classic;html=1;strokeWidth=1;fontFamily=Courier New;exitX=1.014;exitY=0.551;exitDx=0;exitDy=0;exitPerimeter=0;entryX=-0.012;entryY=0.563;entryDx=0;entryDy=0;entryPerimeter=0;" edge="1" parent="OZjUQ0gGfMh4LwKYj09D-1" source="OZjUQ0gGfMh4LwKYj09D-7" target="OZjUQ0gGfMh4LwKYj09D-19">
          
          <mxGeometry width="50" height="50" relative="1" as="geometry">
            
            <mxPoint x="1400" y="1410.006" as="sourcePoint" />
            
            <mxPoint x="1462.8039999999996" y="1430.0019999999997" as="targetPoint" />
            
          </mxGeometry>
          
        </mxCell>
        
        <mxCell id="OZjUQ0gGfMh4LwKYj09D-22" value="" style="endArrow=classic;html=1;strokeWidth=1;fontFamily=Courier New;exitX=1.004;exitY=0.591;exitDx=0;exitDy=0;exitPerimeter=0;entryX=-0.007;entryY=0.597;entryDx=0;entryDy=0;entryPerimeter=0;" edge="1" parent="OZjUQ0gGfMh4LwKYj09D-1" source="OZjUQ0gGfMh4LwKYj09D-14" target="OZjUQ0gGfMh4LwKYj09D-19">
          
          <mxGeometry width="50" height="50" relative="1" as="geometry">
            
            <mxPoint x="1389.9999999999998" y="1429.9999999999998" as="sourcePoint" />
            
            <mxPoint x="1460.856" y="1431.1759999999997" as="targetPoint" />
            
          </mxGeometry>
          
        </mxCell>
        
        <mxCell id="mMupcujavIfd1Qa72NL4-8" style="edgeStyle=orthogonalEdgeStyle;rounded=0;comic=0;orthogonalLoop=1;jettySize=auto;html=1;startArrow=none;startFill=0;endArrow=classic;endFill=1;strokeWidth=1;fontFamily=Courier New;entryX=0.5;entryY=1;entryDx=0;entryDy=0;" edge="1" parent="OZjUQ0gGfMh4LwKYj09D-1" source="OZjUQ0gGfMh4LwKYj09D-23" target="mMupcujavIfd1Qa72NL4-9">
          
          <mxGeometry relative="1" as="geometry">
            
            <mxPoint x="1517.5" y="1739.9999999999998" as="targetPoint" />
            
          </mxGeometry>
          
        </mxCell>
        
        <mxCell id="OZjUQ0gGfMh4LwKYj09D-23" value="Broadcaster" style="ellipse;shape=umlControl;whiteSpace=wrap;html=1;strokeColor=#000000;fillColor=#ffffff;fontFamily=Courier New;perimeterSpacing=1;" vertex="1" parent="OZjUQ0gGfMh4LwKYj09D-1">
          
          <mxGeometry x="1450" y="1817" width="115" height="130" as="geometry" />
          
        </mxCell>
        
        <mxCell id="OZjUQ0gGfMh4LwKYj09D-27" value="" style="rounded=0;whiteSpace=wrap;html=1;fillColor=none;strokeColor=#000000;strokeWidth=2;" vertex="1" parent="OZjUQ0gGfMh4LwKYj09D-1">
          
          <mxGeometry x="240" y="1320" width="480" height="640" as="geometry" />
          
        </mxCell>
        
        <mxCell id="OZjUQ0gGfMh4LwKYj09D-28" style="edgeStyle=orthogonalEdgeStyle;rounded=0;orthogonalLoop=1;jettySize=auto;html=1;entryX=0.011;entryY=0.572;entryDx=0;entryDy=0;entryPerimeter=0;startArrow=none;startFill=0;endArrow=classic;endFill=1;strokeWidth=1;fontFamily=Courier New;" edge="1" parent="OZjUQ0gGfMh4LwKYj09D-1" source="OZjUQ0gGfMh4LwKYj09D-30" target="OZjUQ0gGfMh4LwKYj09D-9">
          
          <mxGeometry relative="1" as="geometry" />
          
        </mxCell>
        
        <mxCell id="OZjUQ0gGfMh4LwKYj09D-29" value="handle(Event)" style="edgeLabel;html=1;align=center;verticalAlign=middle;resizable=0;points=[];fontFamily=Courier New;" vertex="1" connectable="0" parent="OZjUQ0gGfMh4LwKYj09D-28">
          
          <mxGeometry x="-0.493" y="4" relative="1" as="geometry">
            
            <mxPoint x="54" y="-21.43" as="offset" />
            
          </mxGeometry>
          
        </mxCell>
        
        <mxCell id="OZjUQ0gGfMh4LwKYj09D-30" value="SocketManager" style="rounded=0;whiteSpace=wrap;html=1;strokeColor=#000000;strokeWidth=1;fillColor=#ffffff;fontFamily=Courier New;" vertex="1" parent="OZjUQ0gGfMh4LwKYj09D-1">
          
          <mxGeometry x="830" y="1600" width="160" height="80" as="geometry" />
          
        </mxCell>
        
        <mxCell id="OZjUQ0gGfMh4LwKYj09D-31" value="send(Event)" style="text;html=1;align=center;verticalAlign=middle;resizable=0;points=[];autosize=1;fontFamily=Courier New;" vertex="1" parent="OZjUQ0gGfMh4LwKYj09D-1">
          
          <mxGeometry x="755" y="1509" width="90" height="20" as="geometry" />
          
        </mxCell>
        
        <mxCell id="OZjUQ0gGfMh4LwKYj09D-32" style="edgeStyle=orthogonalEdgeStyle;rounded=0;orthogonalLoop=1;jettySize=auto;html=1;startArrow=none;startFill=0;endArrow=classic;endFill=1;strokeWidth=1;fontFamily=Courier New;entryX=1;entryY=0.5;entryDx=0;entryDy=0;" edge="1" parent="OZjUQ0gGfMh4LwKYj09D-1" source="OZjUQ0gGfMh4LwKYj09D-34" target="OZjUQ0gGfMh4LwKYj09D-50">
          
          <mxGeometry relative="1" as="geometry">
            
            <mxPoint x="440" y="1722" as="targetPoint" />
            
            <Array as="points">
              
              <mxPoint x="525" y="1872" />
              
              <mxPoint x="525" y="1842" />
              
            </Array>
            
          </mxGeometry>
          
        </mxCell>
        
        <mxCell id="OZjUQ0gGfMh4LwKYj09D-33" value="Act" style="edgeLabel;html=1;align=center;verticalAlign=middle;resizable=0;points=[];fontFamily=Courier New;" vertex="1" connectable="0" parent="OZjUQ0gGfMh4LwKYj09D-32">
          
          <mxGeometry x="0.395" y="-2" relative="1" as="geometry">
            
            <mxPoint x="-16.14" y="-8" as="offset" />
            
          </mxGeometry>
          
        </mxCell>
        
        <mxCell id="OZjUQ0gGfMh4LwKYj09D-34" value="ReceiveHandler" style="ellipse;shape=umlControl;whiteSpace=wrap;html=1;strokeColor=#000000;fillColor=#ffffff;fontFamily=Courier New;perimeterSpacing=1;" vertex="1" parent="OZjUQ0gGfMh4LwKYj09D-1">
          
          <mxGeometry x="570" y="1802" width="120" height="140" as="geometry" />
          
        </mxCell>
        
        <mxCell id="OZjUQ0gGfMh4LwKYj09D-35" value="EventHandler1" style="ellipse;shape=umlControl;whiteSpace=wrap;html=1;strokeColor=#000000;fillColor=#ffffff;fontFamily=Courier New;perimeterSpacing=1;" vertex="1" parent="OZjUQ0gGfMh4LwKYj09D-1">
          
          <mxGeometry x="1750" y="1370" width="115" height="128" as="geometry" />
          
        </mxCell>
        
        <mxCell id="OZjUQ0gGfMh4LwKYj09D-36" style="edgeStyle=orthogonalEdgeStyle;rounded=0;orthogonalLoop=1;jettySize=auto;html=1;entryX=1.029;entryY=0.558;entryDx=0;entryDy=0;entryPerimeter=0;startArrow=classic;startFill=1;endArrow=none;endFill=0;strokeWidth=1;fontFamily=Courier New;" edge="1" parent="OZjUQ0gGfMh4LwKYj09D-1">
          
          <mxGeometry relative="1" as="geometry">
            
            <mxPoint x="1720" y="1420" as="sourcePoint" />
            
            <mxPoint x="1559.9979999999996" y="1390.2360000000008" as="targetPoint" />
            
            <Array as="points">
              
              <mxPoint x="1680" y="1420" />
              
              <mxPoint x="1680" y="1390" />
              
            </Array>
            
          </mxGeometry>
          
        </mxCell>
        
        <mxCell id="OZjUQ0gGfMh4LwKYj09D-37" value="handle(Event)" style="edgeLabel;html=1;align=center;verticalAlign=middle;resizable=0;points=[];fontFamily=Courier New;labelBackgroundColor=none;" vertex="1" connectable="0" parent="OZjUQ0gGfMh4LwKYj09D-36">
          
          <mxGeometry x="0.1674" relative="1" as="geometry">
            
            <mxPoint x="-22.71" y="-10.169999999999998" as="offset" />
            
          </mxGeometry>
          
        </mxCell>
        
        <mxCell id="OZjUQ0gGfMh4LwKYj09D-38" value="" style="strokeWidth=1;html=1;shape=mxgraph.flowchart.annotation_2;align=left;labelPosition=right;pointerEvents=1;fillColor=#ffffff;fontFamily=Courier New;" vertex="1" parent="OZjUQ0gGfMh4LwKYj09D-1">
          
          <mxGeometry x="1720" y="1342" width="30" height="156" as="geometry" />
          
        </mxCell>
        
        <mxCell id="OZjUQ0gGfMh4LwKYj09D-39" style="edgeStyle=orthogonalEdgeStyle;rounded=0;orthogonalLoop=1;jettySize=auto;html=1;entryX=1.029;entryY=0.558;entryDx=0;entryDy=0;entryPerimeter=0;startArrow=classic;startFill=1;endArrow=none;endFill=0;strokeWidth=1;fontFamily=Courier New;exitX=0.5;exitY=0;exitDx=0;exitDy=0;" edge="1" parent="OZjUQ0gGfMh4LwKYj09D-1" source="OZjUQ0gGfMh4LwKYj09D-41">
          
          <mxGeometry relative="1" as="geometry">
            
            <mxPoint x="2030" y="1458" as="sourcePoint" />
            
            <mxPoint x="1919.9979999999996" y="1428.2360000000008" as="targetPoint" />
            
            <Array as="points">
              
              <mxPoint x="2090" y="1428" />
              
            </Array>
            
          </mxGeometry>
          
        </mxCell>
        
        <mxCell id="OZjUQ0gGfMh4LwKYj09D-40" value="Act" style="edgeLabel;html=1;align=center;verticalAlign=middle;resizable=0;points=[];fontFamily=Courier New;labelBackgroundColor=none;" vertex="1" connectable="0" parent="OZjUQ0gGfMh4LwKYj09D-39">
          
          <mxGeometry x="0.1674" relative="1" as="geometry">
            
            <mxPoint x="-28.43" y="-8.16" as="offset" />
            
          </mxGeometry>
          
        </mxCell>
        
        <mxCell id="OZjUQ0gGfMh4LwKYj09D-41" value="GameState&lt;br&gt;(logic)" style="rounded=0;whiteSpace=wrap;html=1;strokeColor=#000000;strokeWidth=1;fillColor=#ffffff;fontFamily=Courier New;" vertex="1" parent="OZjUQ0gGfMh4LwKYj09D-1">
          
          <mxGeometry x="2010" y="1589" width="160" height="80" as="geometry" />
          
        </mxCell>
        
        <mxCell id="OZjUQ0gGfMh4LwKYj09D-42" style="edgeStyle=orthogonalEdgeStyle;rounded=0;orthogonalLoop=1;jettySize=auto;html=1;entryX=0;entryY=0.5;entryDx=0;entryDy=0;startArrow=none;startFill=0;endArrow=classic;endFill=1;strokeWidth=1;fontFamily=Courier New;" edge="1" parent="OZjUQ0gGfMh4LwKYj09D-1" source="OZjUQ0gGfMh4LwKYj09D-44" target="OZjUQ0gGfMh4LwKYj09D-41">
          
          <mxGeometry relative="1" as="geometry" />
          
        </mxCell>
        
        <mxCell id="OZjUQ0gGfMh4LwKYj09D-43" value="Update" style="edgeLabel;html=1;align=center;verticalAlign=middle;resizable=0;points=[];fontFamily=Courier New;labelBackgroundColor=none;" vertex="1" connectable="0" parent="OZjUQ0gGfMh4LwKYj09D-42">
          
          <mxGeometry x="-0.3734" y="-1" relative="1" as="geometry">
            
            <mxPoint x="18" y="-8" as="offset" />
            
          </mxGeometry>
          
        </mxCell>
        
        <mxCell id="OZjUQ0gGfMh4LwKYj09D-44" value="GameLoop" style="ellipse;shape=umlControl;whiteSpace=wrap;html=1;strokeColor=#000000;fillColor=#ffffff;fontFamily=Courier New;perimeterSpacing=1;" vertex="1" parent="OZjUQ0gGfMh4LwKYj09D-1">
          
          <mxGeometry x="1780" y="1565" width="115" height="128" as="geometry" />
          
        </mxCell>
        
        <mxCell id="OZjUQ0gGfMh4LwKYj09D-45" style="edgeStyle=orthogonalEdgeStyle;rounded=0;orthogonalLoop=1;jettySize=auto;html=1;entryX=0.5;entryY=1;entryDx=0;entryDy=0;startArrow=none;startFill=0;endArrow=classic;endFill=1;strokeWidth=1;fontFamily=Courier New;" edge="1" parent="OZjUQ0gGfMh4LwKYj09D-1" source="OZjUQ0gGfMh4LwKYj09D-48" target="OZjUQ0gGfMh4LwKYj09D-41">
          
          <mxGeometry relative="1" as="geometry" />
          
        </mxCell>
        
        <mxCell id="OZjUQ0gGfMh4LwKYj09D-46" value="Observe" style="edgeLabel;html=1;align=center;verticalAlign=middle;resizable=0;points=[];fontFamily=Courier New;labelBackgroundColor=none;" vertex="1" connectable="0" parent="OZjUQ0gGfMh4LwKYj09D-45">
          
          <mxGeometry x="-0.3172" y="-2" relative="1" as="geometry">
            
            <mxPoint x="-21.57" y="-7.03" as="offset" />
            
          </mxGeometry>
          
        </mxCell>
        
        <mxCell id="OZjUQ0gGfMh4LwKYj09D-47" style="edgeStyle=orthogonalEdgeStyle;rounded=0;orthogonalLoop=1;jettySize=auto;html=1;startArrow=none;startFill=0;endArrow=classic;endFill=1;strokeWidth=1;fontFamily=Courier New;" edge="1" parent="OZjUQ0gGfMh4LwKYj09D-1" source="OZjUQ0gGfMh4LwKYj09D-48">
          
          <mxGeometry relative="1" as="geometry">
            
            <Array as="points">
              
              <mxPoint x="1680" y="1857" />
              
              <mxPoint x="1680" y="1895" />
              
            </Array>
            
            <mxPoint x="1570" y="1895" as="targetPoint" />
            
          </mxGeometry>
          
        </mxCell>
        
        <mxCell id="OZjUQ0gGfMh4LwKYj09D-48" value="Observer" style="ellipse;shape=umlControl;whiteSpace=wrap;html=1;strokeColor=#000000;fillColor=#ffffff;fontFamily=Courier New;perimeterSpacing=1;" vertex="1" parent="OZjUQ0gGfMh4LwKYj09D-1">
          
          <mxGeometry x="1750" y="1792" width="115" height="130" as="geometry" />
          
        </mxCell>
        
        <mxCell id="OZjUQ0gGfMh4LwKYj09D-49" value="handle(Event)" style="edgeLabel;html=1;align=center;verticalAlign=middle;resizable=0;points=[];fontFamily=Courier New;labelBackgroundColor=none;" vertex="1" connectable="0" parent="OZjUQ0gGfMh4LwKYj09D-1">
          
          <mxGeometry x="1629.99858274637" y="1881.9995898568723" as="geometry" />
          
        </mxCell>
        
        <mxCell id="OZjUQ0gGfMh4LwKYj09D-50" value="GameState&lt;br&gt;(graphic)" style="rounded=0;whiteSpace=wrap;html=1;strokeColor=#000000;strokeWidth=1;fillColor=#ffffff;fontFamily=Courier New;" vertex="1" parent="OZjUQ0gGfMh4LwKYj09D-1">
          
          <mxGeometry x="320" y="1802" width="160" height="80" as="geometry" />
          
        </mxCell>
        
        <mxCell id="OZjUQ0gGfMh4LwKYj09D-52" style="edgeStyle=orthogonalEdgeStyle;rounded=0;orthogonalLoop=1;jettySize=auto;html=1;entryX=0.5;entryY=0;entryDx=0;entryDy=0;startArrow=none;startFill=0;endArrow=classic;endFill=1;strokeWidth=1;fontFamily=Courier New;" edge="1" parent="OZjUQ0gGfMh4LwKYj09D-1" source="OZjUQ0gGfMh4LwKYj09D-56" target="OZjUQ0gGfMh4LwKYj09D-50">
          
          <mxGeometry relative="1" as="geometry" />
          
        </mxCell>
        
        <mxCell id="OZjUQ0gGfMh4LwKYj09D-53" value="Read" style="edgeLabel;html=1;align=center;verticalAlign=middle;resizable=0;points=[];fontFamily=Courier New;" vertex="1" connectable="0" parent="OZjUQ0gGfMh4LwKYj09D-52">
          
          <mxGeometry x="-0.2341" y="3" relative="1" as="geometry">
            
            <mxPoint x="17" y="17.03" as="offset" />
            
          </mxGeometry>
          
        </mxCell>
        
        <mxCell id="OZjUQ0gGfMh4LwKYj09D-54" style="edgeStyle=orthogonalEdgeStyle;rounded=0;orthogonalLoop=1;jettySize=auto;html=1;entryX=0.5;entryY=1;entryDx=0;entryDy=0;startArrow=none;startFill=0;endArrow=classic;endFill=1;strokeWidth=1;fontFamily=Courier New;" edge="1" parent="OZjUQ0gGfMh4LwKYj09D-1" source="OZjUQ0gGfMh4LwKYj09D-56">
          
          <mxGeometry relative="1" as="geometry">
            
            <mxPoint x="400" y="1509" as="targetPoint" />
            
          </mxGeometry>
          
        </mxCell>
        
        <mxCell id="OZjUQ0gGfMh4LwKYj09D-55" value="Render" style="edgeLabel;html=1;align=center;verticalAlign=middle;resizable=0;points=[];fontFamily=Courier New;" vertex="1" connectable="0" parent="OZjUQ0gGfMh4LwKYj09D-54">
          
          <mxGeometry x="-0.2294" y="2" relative="1" as="geometry">
            
            <mxPoint x="27" as="offset" />
            
          </mxGeometry>
          
        </mxCell>
        
        <mxCell id="OZjUQ0gGfMh4LwKYj09D-56" value="RenderLoop" style="ellipse;shape=umlControl;whiteSpace=wrap;html=1;strokeColor=#000000;fillColor=#ffffff;fontFamily=Courier New;perimeterSpacing=1;" vertex="1" parent="OZjUQ0gGfMh4LwKYj09D-1">
          
          <mxGeometry x="340" y="1585" width="120" height="140" as="geometry" />
          
        </mxCell>
        
        <mxCell id="OZjUQ0gGfMh4LwKYj09D-57" style="edgeStyle=orthogonalEdgeStyle;rounded=0;orthogonalLoop=1;jettySize=auto;html=1;entryX=0;entryY=0.5;entryDx=0;entryDy=0;startArrow=none;startFill=0;endArrow=classic;endFill=1;strokeWidth=1;fontFamily=Courier New;exitX=1.06;exitY=0.549;exitDx=0;exitDy=0;exitPerimeter=0;comic=0;" edge="1" parent="OZjUQ0gGfMh4LwKYj09D-1" source="OZjUQ0gGfMh4LwKYj09D-58" target="OZjUQ0gGfMh4LwKYj09D-30">
          
          <mxGeometry relative="1" as="geometry">
            
            <Array as="points">
              
              <mxPoint x="750" y="1459" />
              
              <mxPoint x="750" y="1640" />
              
            </Array>
            
          </mxGeometry>
          
        </mxCell>
        
        <mxCell id="OZjUQ0gGfMh4LwKYj09D-58" value="InputLoop" style="ellipse;shape=umlControl;whiteSpace=wrap;html=1;strokeColor=#000000;fillColor=#ffffff;fontFamily=Courier New;perimeterSpacing=1;" vertex="1" parent="OZjUQ0gGfMh4LwKYj09D-1">
          
          <mxGeometry x="550" y="1382" width="120" height="140" as="geometry" />
          
        </mxCell>
        
        <mxCell id="mMupcujavIfd1Qa72NL4-0" value="&lt;h1&gt;&lt;font color=&quot;#007fff&quot;&gt;Client&lt;/font&gt;&lt;/h1&gt;" style="text;html=1;align=center;verticalAlign=middle;resizable=0;points=[];autosize=1;fontFamily=Courier New;" vertex="1" parent="OZjUQ0gGfMh4LwKYj09D-1">
          
          <mxGeometry x="610" y="1210" width="100" height="50" as="geometry" />
          
        </mxCell>
        
        <mxCell id="mMupcujavIfd1Qa72NL4-1" value="&lt;h1&gt;&lt;font color=&quot;#ff8000&quot;&gt;Server&lt;/font&gt;&lt;/h1&gt;" style="text;html=1;align=center;verticalAlign=middle;resizable=0;points=[];autosize=1;fontFamily=Courier New;" vertex="1" parent="OZjUQ0gGfMh4LwKYj09D-1">
          
          <mxGeometry x="1710" y="1210" width="100" height="50" as="geometry" />
          
        </mxCell>
        
        <mxCell id="mMupcujavIfd1Qa72NL4-5" style="edgeStyle=orthogonalEdgeStyle;rounded=0;comic=0;orthogonalLoop=1;jettySize=auto;html=1;exitX=0.5;exitY=1;exitDx=0;exitDy=0;entryX=0.525;entryY=0.064;entryDx=0;entryDy=0;entryPerimeter=0;startArrow=none;startFill=0;endArrow=classic;endFill=1;strokeWidth=1;fontFamily=Courier New;" edge="1" parent="OZjUQ0gGfMh4LwKYj09D-1" source="mMupcujavIfd1Qa72NL4-2" target="OZjUQ0gGfMh4LwKYj09D-18">
          
          <mxGeometry relative="1" as="geometry">
            
            <Array as="points">
              
              <mxPoint x="1328" y="1760" />
              
            </Array>
            
          </mxGeometry>
          
        </mxCell>
        
        <mxCell id="mMupcujavIfd1Qa72NL4-10" style="edgeStyle=orthogonalEdgeStyle;rounded=0;comic=0;orthogonalLoop=1;jettySize=auto;html=1;entryX=1;entryY=0.5;entryDx=0;entryDy=0;startArrow=none;startFill=0;endArrow=classic;endFill=1;strokeWidth=1;fontFamily=Courier New;" edge="1" parent="OZjUQ0gGfMh4LwKYj09D-1" source="mMupcujavIfd1Qa72NL4-9" target="mMupcujavIfd1Qa72NL4-4">
          
          <mxGeometry relative="1" as="geometry" />
          
        </mxCell>
        
        <mxCell id="mMupcujavIfd1Qa72NL4-11" style="edgeStyle=orthogonalEdgeStyle;rounded=0;comic=0;orthogonalLoop=1;jettySize=auto;html=1;entryX=1;entryY=0.5;entryDx=0;entryDy=0;startArrow=none;startFill=0;endArrow=classic;endFill=1;strokeWidth=1;fontFamily=Courier New;" edge="1" parent="OZjUQ0gGfMh4LwKYj09D-1" source="mMupcujavIfd1Qa72NL4-9" target="mMupcujavIfd1Qa72NL4-3">
          
          <mxGeometry relative="1" as="geometry">
            
            <Array as="points">
              
              <mxPoint x="1450" y="1700" />
              
              <mxPoint x="1450" y="1711" />
              
            </Array>
            
          </mxGeometry>
          
        </mxCell>
        
        <mxCell id="mMupcujavIfd1Qa72NL4-12" style="edgeStyle=orthogonalEdgeStyle;rounded=0;comic=0;orthogonalLoop=1;jettySize=auto;html=1;startArrow=none;startFill=0;endArrow=classic;endFill=1;strokeWidth=1;fontFamily=Courier New;" edge="1" parent="OZjUQ0gGfMh4LwKYj09D-1" source="mMupcujavIfd1Qa72NL4-9" target="mMupcujavIfd1Qa72NL4-2">
          
          <mxGeometry relative="1" as="geometry">
            
            <Array as="points">
              
              <mxPoint x="1450" y="1700" />
              
              <mxPoint x="1450" y="1720" />
              
            </Array>
            
          </mxGeometry>
          
        </mxCell>
        
        <mxCell id="mMupcujavIfd1Qa72NL4-9" value="ClientsMonitor" style="rounded=0;whiteSpace=wrap;html=1;strokeColor=#000000;strokeWidth=1;fillColor=#ffffff;fontFamily=Courier New;" vertex="1" parent="OZjUQ0gGfMh4LwKYj09D-1">
          
          <mxGeometry x="1470" y="1660" width="160" height="80" as="geometry" />
          
        </mxCell>
        
        <mxCell id="mMupcujavIfd1Qa72NL4-13" value="" style="shape=image;html=1;verticalAlign=top;verticalLabelPosition=bottom;labelBackgroundColor=#ffffff;imageAspect=0;aspect=fixed;image=https://cdn2.iconfinder.com/data/icons/pittogrammi/142/03-128.png;strokeColor=#000000;strokeWidth=1;fillColor=#ffffff;fontFamily=Courier New;" vertex="1" parent="OZjUQ0gGfMh4LwKYj09D-1">
          
          <mxGeometry x="355.5" y="1433" width="89" height="89" as="geometry" />
          
        </mxCell>
        
      </root>
      
    </mxGraphModel>
    
  </diagram>
</mxfile>
